<?xml version="1.0" standalone="no"?>
<!DOCTYPE svg PUBLIC "-//W3C//DTD SVG 1.1//EN" "http://www.w3.org/Graphics/SVG/1.1/DTD/svg11.dtd" >
<svg xmlns="http://www.w3.org/2000/svg">
<metadata>Generated by IcoMoon</metadata>
<defs>
<font id="mls-ui-icons" horiz-adv-x="512">
<font-face units-per-em="512" ascent="480" descent="-32" />
<missing-glyph horiz-adv-x="512" />
<glyph unicode="&#x20;" d="" horiz-adv-x="256" />
<glyph unicode="&#x41;" d="M240 309.333v-32l176 112v-352l-176 112v-32l208-128v448l-208-128zM208 309.333h-112.528c-19.328 0-31.472-13.2-31.472-32v-128c0-18.8 12.672-32 32-32h112v192z" />
<glyph unicode="&#x42;" d="M405.216-10.667h-304.272c-20.624 0-36.944 14.8-36.944 34.432v372.592c0 19.504 15.984 40.976 36.944 40.976h224.304c15.68 0 37.68-11.232 49.376-25.712l51.936-61.584c10.48-12.944 21.44-35.936 21.44-52.624v-273.648c0-20.608-22.128-34.432-42.784-34.432zM100.944 405.333c-3.52 0-4.944-0.688-4.944-8.976v-372.592c0-7.328-0.72-2.432 4.944-2.432h304.272c9.088 0 10.784-1.728 10.784 2.432v273.648c0 9.664-4.4 25.712-11.936 35.056l-50.064 59.664c-5.856 7.248-18.16 13.2-28.752 13.2h-224.304zM416 309.333h-58.848c-20.048 0-21.152 9.84-21.152 30v66h16v-66c0-7.008-1.232-14 5.152-14h58.848v-16zM144 341.333h128v-32h-128v32zM144 261.333h224v-32h-224v32zM144 181.333h224v-32h-224v32zM144 101.333h224v-32h-224v32z" />
<glyph unicode="&#x43;" d="M239.472 128.597c-3.568-5.136-1.312-11.264 5.008-11.264h117.28c6.32 0 8.576 6.128 5.024 11.264l-57.184 83.328c-3.552 5.12-9.376 4.64-12.944-0.48l-57.184-82.848zM124.96 128.597c-3.568-5.136-1.312-11.264 5.008-11.264h164.032c6.32 0 8.576 6.128 5.024 11.264l-80.56 116.992c-3.552 5.12-9.376 4.64-12.944-0.48l-80.56-116.512zM344.288 281.061c0-14.236-11.755-25.776-26.256-25.776s-26.256 11.54-26.256 25.776c0 14.236 11.755 25.776 26.256 25.776s26.256-11.541 26.256-25.776zM445.536 21.333h-379.072c-19.008 0-34.464 17.52-34.464 36.192v313.968c0 18.656 15.456 33.84 34.464 33.84h379.072c19.008 0 34.464-15.184 34.464-33.84v-313.984c0-18.656-15.456-36.176-34.464-36.176zM66.464 373.333c-6.336 0-2.464 4.384-2.464-1.84v-313.984c0-6.208-3.872-4.176 2.464-4.176h379.072c6.336 0 2.464-2.032 2.464 4.192v313.968c0 6.224 3.872 1.84-2.464 1.84h-379.072z" />
<glyph unicode="&#x44;" d="M204.8 101.333l-19.2-19.2c-17.6-16-44.8-16-60.8 0-8 8-12.8 17.6-12.8 28.8s4.8 22.4 12.8 30.4l72 70.4c14.4 14.4 43.2 36.8 62.4 16 9.6-9.6 24-9.6 33.6 0s9.6 24 0 33.6c-35.2 33.6-86.4 27.2-129.6-16l-72-70.4c-17.6-17.6-27.2-40-27.2-64s9.6-46.4 27.2-64c17.6-17.6 41.6-25.6 64-25.6s46.4 8 64 25.6l19.2 19.2c9.6 9.6 9.6 24 0 33.6s-24 9.6-33.6 1.6zM420.8 376.533c-36.8 36.8-89.6 38.4-123.2 4.8l-24-24c-9.6-9.6-9.6-24 0-33.6s24-9.6 33.6 0l24 24c17.6 17.6 41.6 9.6 56-4.8 8-8 12.8-19.2 12.8-30.4s-4.8-22.4-12.8-30.4l-76.8-75.2c-35.2-35.2-51.2-17.6-57.6-11.2-9.6 9.6-24 9.6-33.6 0s-9.6-24 0-33.6c16-16 33.6-24 52.8-24 24 0 48 11.2 72 35.2l76.8 75.2c17.6 17.6 27.2 40 27.2 64s-9.6 46.4-27.2 64z" />
<glyph unicode="&#x45;" d="M220.256 135.685c-7.712-4.208-12.256-0.464-12.256 8.336v131.968c0 8.8 4.544 12.56 12.256 8.336l121.312-66.656c7.728-4.208 8.176-11.104 0.448-15.328l-121.76-66.656zM256-10.667c-123.52 0-224 100.48-224 224s100.48 224 224 224 224-100.48 224-224-100.48-224-224-224zM256 413.749c-110.512 0-200.416-89.904-200.416-200.416s89.904-200.416 200.416-200.416 200.416 89.904 200.416 200.416-89.904 200.416-200.416 200.416z" />
<glyph unicode="&#x46;" d="M432 245.333h-144v144c0 17.664-14.336 32-32 32s-32-14.336-32-32v-144h-144c-17.664 0-32-14.336-32-32s14.336-32 32-32h144v-144c0-17.664 14.336-32 32-32s32 14.336 32 32v144h144c17.664 0 32 14.336 32 32s-14.336 32-32 32z" />
<glyph unicode="&#x47;" d="M432 181.333h-352c-17.664 0-32 14.336-32 32s14.336 32 32 32h352c17.664 0 32-14.336 32-32s-14.336-32-32-32z" />
<glyph unicode="&#x48;" d="M301.248 213.333l153.376 153.376c12.496 12.496 12.496 32.752 0 45.248s-32.752 12.496-45.248 0l-153.376-153.376-153.376 153.376c-12.496 12.496-32.752 12.496-45.248 0s-12.496-32.752 0-45.248l153.376-153.376-153.376-153.376c-12.496-12.496-12.496-32.752 0-45.248 6.24-6.256 14.432-9.376 22.624-9.376s16.384 3.12 22.624 9.376l153.376 153.376 153.376-153.376c12.496-12.496 32.752-12.496 45.248 0 6.256 6.24 9.376 14.432 9.376 22.624s-3.12 16.384-9.376 22.624l-153.376 153.376z" />
<glyph unicode="&#x49;" d="M384 37.333h-275.2c-28 0-76.8 49.328-76.8 77.616v178.384c0 8.832 7.168 16 16 16s16-7.168 16-16v-178.384c0.896-11.696 33.232-44.592 44.928-45.616h275.072c8.848 0 16-7.152 16-16s-7.152-16-16-16zM480 149.333c0-19.44-28.56-48-48-48h-288c-19.44 0-48 28.56-48 48v176c0 19.44 28.56 48 48 48h288c19.44 0 48-28.56 48-48v-176z" />
<glyph unicode="&#x4a;" d="M288 389.333h-80v-112h-48l88.496-95.504 87.504 95.504h-48v112zM480 204.965v-167.632h-448v167.632l96 184.368h48l-92.928-184.368h56.272l39.248-44.368h154.304l40.336 44.368h55.76l-108.128 184.368h51.088l108.048-184.368z" />
<glyph unicode="&#x4b;" d="M417.6 374.933c-35.2 35.2-62.4 30.4-62.4 30.4l-265.6-267.2-25.6-116.8 116.8 25.6 267.2 265.6c0 0 4.8 27.2-30.4 62.4v0zM174.4 59.733l-40-8c-3.2 8-8 14.4-17.6 22.4-8 8-16 12.8-22.4 17.6l8 40 11.2 11.2c0 0 22.4 0 46.4-25.6 24-24 25.6-46.4 25.6-46.4l-11.2-11.2z" />
<glyph unicode="&#x4c;" d="M317.414 142.899c6.861-6.938 6.861-18.151 0-25.063-6.861-6.938-17.945-6.938-24.807 0l-98.048 100.019c-6.861 6.938-6.861 18.151 0 25.063l98.048 100.045c6.861 6.938 17.945 6.938 24.807 0s6.861-18.125 0-25.063l-80.384-87.501 80.384-87.501z" />
<glyph unicode="&#x4d;" d="M343.501 291.815c6.938 6.861 18.151 6.861 25.063 0 6.938-6.861 6.938-17.945 0-24.806l-100.019-98.048c-6.938-6.861-18.15-6.861-25.063 0l-100.045 98.048c-6.912 6.861-6.912 17.945 0 24.806 6.938 6.861 18.125 6.861 25.063 0l87.501-80.384 87.501 80.384z" />
<glyph unicode="&#x4e;" d="M168.474 168.986c-6.938-6.861-18.125-6.861-25.063 0-6.912 6.861-6.938 17.945 0 24.832l100.045 97.997c6.938 6.861 18.151 6.861 25.063 0l100.045-98.023c6.938-6.887 6.938-17.971 0-24.832s-18.125-6.861-25.063 0l-87.526 80.41-87.501-80.384z" />
<glyph unicode="&#x4f;" d="M194.585 142.899c-6.861-6.938-6.861-18.151 0-25.063 6.835-6.938 17.946-6.938 24.806 0l98.048 100.019c6.861 6.938 6.861 18.151 0 25.063l-98.048 100.045c-6.861 6.938-17.946 6.938-24.806 0s-6.861-18.125-0.025-25.037l80.409-87.527-80.384-87.501z" />
<glyph unicode="&#x50;" d="M368.615 40.499c6.861-6.938 6.861-18.125 0-25.063s-17.945-6.938-24.807 0l-200.448 202.419c-6.861 6.938-6.861 18.151 0 25.063l200.448 202.445c6.861 6.938 17.945 6.938 24.807 0s6.861-18.125 0-25.063l-182.784-189.901 182.784-189.901z" />
<glyph unicode="&#x51;" d="M66.099 343.014c-6.938 6.861-18.151 6.861-25.063 0-6.912-6.835-6.912-17.946 0-24.807l202.445-200.448c6.938-6.861 18.125-6.861 25.063 0l202.445 200.448c6.912 6.861 6.938 17.945 0 24.806s-18.176 6.861-25.063 0.026l-189.927-182.81-189.901 182.784z" />
<glyph unicode="&#x52;" d="M445.901 117.785c6.938-6.861 18.151-6.861 25.063 0 6.938 6.861 6.938 17.945 0 24.807l-202.445 200.448c-6.912 6.861-18.125 6.861-25.037 0l-202.445-200.448c-6.912-6.861-6.938-17.945 0-24.807s18.125-6.861 25.063 0l189.901 182.81 189.901-182.81z" />
<glyph unicode="&#x53;" d="M143.352 40.499c-6.861-6.938-6.861-18.125 0-25.063s17.946-6.938 24.806 0l200.448 202.419c6.861 6.938 6.861 18.151 0 25.063l-200.448 202.445c-6.861 6.938-17.946 6.938-24.806 0s-6.861-18.125 0-25.063l182.784-189.901-182.784-189.901z" />
<glyph unicode="&#x54;" d="M128 240h112v112h-112v-112zM272 352v-112h112v112h-112zM272 96h112v112h-112v-112zM128 96h112v112h-112v-112z" />
<glyph unicode="&#x55;" d="M128 352v-64h256v64h-256zM128 192h256v64h-256v-64zM128 96h256v64h-256v-64z" />
<glyph unicode="&#x56;" d="M435.2 409.6h-23.040v-51.2h-81.92v51.2h-148.48v-51.2h-81.92v51.2h-23.040c-28.16 0-51.2-23.040-51.2-51.2v-307.2c0-28.16 23.040-51.2 51.2-51.2h358.4c28.16 0 51.2 23.040 51.2 51.2v307.2c0 28.16-23.040 51.2-51.2 51.2zM435.2 51.2h-358.4v204.8h358.4v-204.8zM158.72 460.8h-35.84v-87.040h35.84v87.040zM389.12 460.8h-35.84v-87.040h35.84v87.040z" />
<glyph unicode="&#x57;" d="M438.4 62.933l-100.8 100.8c19.2 25.6 30.4 57.6 30.4 91.2 0 83.2-68.8 152-152 152-83.2 1.6-152-67.2-152-150.4s68.8-152 152-152c28.8 0 54.4 8 76.8 20.8l104-104 41.6 41.6zM123.2 256.533c0 51.2 41.6 92.8 92.8 92.8s92.8-41.6 92.8-92.8-41.6-92.8-92.8-92.8-92.8 41.6-92.8 92.8z" />
<glyph unicode="&#x58;" d="M256 480c-141.385 0-256-114.615-256-256s114.615-256 256-256 256 114.615 256 256-114.615 256-256 256zM329.372 105.372l-105.372 105.373v141.255h64v-114.745l86.628-86.627-45.256-45.256z" />
<glyph unicode="&#x59;" d="M311.413 128.632c-11.055 1.759-11.307 32.157-11.307 32.157s32.484 32.158 39.564 75.401c19.045 0 30.809 45.973 11.761 62.148 0.795 17.027 24.48 133.662-95.431 133.662s-96.225-116.635-95.432-133.662c-19.047-16.175-7.285-62.148 11.761-62.148 7.079-43.243 39.564-75.401 39.564-75.401s-0.252-30.398-11.307-32.157c-35.61-5.666-168.586-64.317-168.586-128.632h448c0 64.315-132.976 122.966-168.587 128.632z" />
<glyph unicode="&#x5a;" d="M466.895 174.875c-26.863 46.527-10.708 106.152 36.076 133.244l-50.313 87.146c-14.375-8.427-31.088-13.259-48.923-13.259-53.768 0-97.354 43.873-97.354 97.995h-100.629c0.133-16.705-4.037-33.641-12.979-49.126-26.862-46.528-86.578-62.351-133.431-35.379l-50.312-87.146c14.485-8.236 27.025-20.294 35.943-35.739 26.819-46.454 10.756-105.96-35.854-133.112l50.313-87.146c14.325 8.348 30.958 13.127 48.7 13.127 53.598 0 97.072-43.596 97.35-97.479h100.627c-0.043 16.537 4.136 33.285 12.983 48.609 26.818 46.453 86.388 62.297 133.207 35.506l50.313 87.145c-14.39 8.233-26.846 20.249-35.717 35.614zM256 120.334c-57.254 0-103.668 46.412-103.668 103.667 0 57.254 46.413 103.667 103.668 103.667s103.666-46.413 103.666-103.667c-0.001-57.255-46.412-103.667-103.666-103.667z" />
<glyph unicode="&#x61;" d="M416 323.733l-48 48-112-112-112 112-48-48 112-112-112-112 48-48 112 112 112-112 48 48-112 112z" />
<glyph unicode="&#x62;" d="M187.2 35.733l-124.8 123.2 51.2 49.6 68.8-68.8 211.2 249.6 52.8-44.8z" />
<glyph unicode="&#x63;" d="M96 405.333h320v-64h-320v64zM96 245.333h320v-64h-320v64zM96 85.333h320v-64h-320v64z" />
<glyph unicode="&#x64;" d="M398.4 430.933c0 4.8-4.8 6.4-9.6 6.4h-132.8c-14.4 0-28.8-1.6-43.2-6.4-48-16-81.6-57.6-81.6-99.2 0-59.2 46.4-105.6 108.8-107.2-1.6-4.8-1.6-19.2-1.6-24 0-9.6 1.6-3.2 6.4-35.2 0 0-1.6 0-1.6 0-59.2 0-112-19.2-132.8-62.4-4.8-11.2-8-17.6-8-28.8s3.2-19.2 8-28.8c12.8-22.4 40-40 76.8-48 19.2-4.8 40-6.4 60.8-6.4 19.2 0 36.8 3.2 54.4 8 52.8 16 86.4 54.4 86.4 99.2 0 43.2-14.4 68.8-51.2 94.4-16 11.2-30.4 27.2-30.4 33.6 0 9.6 1.6 14.4 20.8 30.4 27.2 20.8 41.6 44.8 41.6 73.6 0 25.6-8 62.4-22.4 62.4h11.2c1.6 0 4.8 4.8 6.4 6.4l30.4 22.4c3.2 0 4.8 6.4 3.2 9.6zM198.4 334.933c-3.2 22.4 1.6 35.2 12.8 48 6.4 8 16 6.4 27.2 6.4h1.6c28.8 0 57.6-28.8 62.4-67.2 3.2-22.4-1.6-38.4-12.8-51.2-8-9.6-17.6-9.6-27.2-9.6v0c-30.4 0-59.2 33.6-64 73.6zM332.8 101.333c1.6-3.2 1.6-8 1.6-11.2 0-38.4-28.8-59.2-86.4-59.2-43.2 0-76.8 33.6-76.8 67.2 0 32 40 65.6 84.8 65.6v0c9.6 0 19.2-8 28.8-11.2 3.2-1.6 6.4-8 9.6-9.6 20.8-12.8 33.6-25.6 38.4-41.6z" />
<glyph unicode="&#x65;" d="M400 405.333h-288c-27.2 0-48-20.8-48-48v-288c0-27.2 20.8-48 48-48h288c27.2 0 48 20.8 48 48v288c0 27.2-20.8 48-48 48zM368 261.333h-16v-96h16v-48h-96v48h16v32h-64v-32h16v-48h-96v48h16v96h-16v48h96v-48h-16v-32h64v32h-16v48h96v-48z" />
<glyph unicode="&#x66;" d="M480 37.333c0 0-49.6 241.6-268.8 241.6v96l-179.2-160 179.2-166.4v108.8c118.4 0 206.4-11.2 268.8-120z" />
<glyph unicode="&#x67;" d="M356.8 243.733l-60.8-88-99.2 147.2-164.8-240h448zM428.8 347.733c0-25.626-20.774-46.4-46.4-46.4s-46.4 20.774-46.4 46.4c0 25.626 20.774 46.4 46.4 46.4s46.4-20.774 46.4-46.4z" />
<glyph unicode="&#x68;" d="M380.8 147.733c-19.2 0-35.2-8-48-20.8l-132.8 67.2c1.6 6.4 3.2 12.8 3.2 19.2s-1.6 12.8-3.2 19.2l132.8 67.2c11.2-12.8 28.8-20.8 48-20.8 36.8 0 65.6 28.8 65.6 65.6s-30.4 64-65.6 64c-36.8 0-65.6-28.8-65.6-65.6 0-6.4 1.6-12.8 3.2-19.2l-132.8-67.2c-11.2 12.8-28.8 20.8-48 20.8-36.8 0-65.6-28.8-65.6-65.6s28.8-65.6 65.6-65.6c19.2 0 35.2 8 48 20.8l132.8-67.2c-1.6-6.4-3.2-12.8-3.2-19.2 0-36.8 28.8-65.6 65.6-65.6s65.6 28.8 65.6 65.6c-1.6 38.4-30.4 67.2-65.6 67.2z" />
<glyph unicode="&#x69;" d="M256 69.333l-192 240h384z" />
<glyph unicode="&#x6a;" d="M256 357.333l192-240h-384z" />
<glyph unicode="&#x6b;" d="M475.2 294.933c0 0-4.8 30.4-17.6 44.8-17.6 17.6-36.8 17.6-44.8 17.6-62.4 4.8-156.8 4.8-156.8 4.8v0c0 0-94.4 0-156.8-4.8-8 0-27.2 0-44.8-19.2-12.8-12.8-17.6-43.2-17.6-43.2s-4.8-36.8-4.8-73.6v-33.6c0-36.8 4.8-72 4.8-72s4.8-30.4 17.6-44.8c17.6-17.6 40-17.6 49.6-19.2 35.2-3.2 152-4.8 152-4.8s94.4 0 156.8 4.8c8 1.6 27.2 1.6 44.8 19.2 12.8 12.8 17.6 44.8 17.6 44.8s4.8 36.8 4.8 72v33.6c0 36.8-4.8 73.6-4.8 73.6zM209.6 146.133v126.4l121.6-62.4-121.6-64z" />
</font>
</defs>
</svg>
