<?xml version="1.0" encoding="utf-8"?>
<!-- Generator: Adobe Illustrator 16.0.0, SVG Export Plug-In . SVG Version: 6.00 Build 0)  -->
<!DOCTYPE svg PUBLIC "-//W3C//DTD SVG 1.1//EN" "http://www.w3.org/Graphics/SVG/1.1/DTD/svg11.dtd">
<svg version="1.1" id="Layer_1" xmlns="http://www.w3.org/2000/svg" xmlns:xlink="http://www.w3.org/1999/xlink" x="0px" y="0px"
	 width="100px" height="100px" viewBox="0 0 100 100" enable-background="new 0 0 100 100" xml:space="preserve">
<path fill="none" stroke="#FFFFFF" stroke-width="0.5" stroke-miterlimit="10" d="M25.732,47.171c1.66,1.935-2.117-1.266,0-5.154
	c1.25-2.297,45.338,8.291,42.822,10.349"/>
<path fill="none" stroke="#FFFFFF" stroke-width="0.5" stroke-miterlimit="10" d="M26.163,47.749c0,0,3.205,1.231,4.162,0.722"/>
<path fill="none" stroke="#FFFFFF" stroke-width="0.5" stroke-miterlimit="10" d="M41.084,79.709v7.356
	c0,0-31.555,4.411-33.244,7.534c-0.464,0.859,0,3.9,0,3.9h2.744l0.335-1.925l11.042-0.819V98.5h3.107v-2.972l16.016-0.687h2.772"/>
<path fill="none" stroke="#FFFFFF" stroke-width="0.5" stroke-miterlimit="10" d="M21.961,95.756c0-0.984,0.314-2.313,0.314-2.313"
	/>
<path fill="none" stroke="#FFFFFF" stroke-width="0.5" stroke-miterlimit="10" d="M41.084,87.065c0,0-18.033,4.818-18.809,6.378"/>
<line fill="none" stroke="#FFFFFF" stroke-width="0.5" stroke-miterlimit="10" x1="41.084" y1="87.065" x2="41.084" y2="94.842"/>
<line fill="none" stroke="#FFFFFF" stroke-width="0.5" stroke-miterlimit="10" x1="41.084" y1="83.922" x2="43.857" y2="83.922"/>
<path fill="none" stroke="#FFFFFF" stroke-width="0.5" stroke-miterlimit="10" d="M59.89,83.673c0,0,0.075-4.184-0.255-5.526
	c-1.679-6.856-11.273-9.35-13.72-13.489c-1.288-2.182,0-5.033-1.144-10.063c-1.144-5.03-9.941-7.864-13.491-6.631
	c-3.247,1.127-6.541,8.277-9.604,9.834c-3.11,1.579-7.318,0-13.95,0.455c-6.632,0.458-7.089,9.149-7.089,9.149l57.854,17.606
	c0,0,4.545-3.358,5.26-5.03c0.614-1.434,0.756-4.875,0-6.238c-2.435-4.398-12.728-8.584-15.55-12.743
	c-1.341-1.976-1.829-9.603,1.83-9.374c3.659,0.228,11.789,4.205,15.551,2.972c3.582-1.175,7.172-8.764,9.832-11.434
	c1.574-1.579,8.659-5.313,8.919,0c0.27,5.557-11.027,22.474-17.838,30.579c-0.441,0.524-2.744,0-2.744,0"/>
<path fill="none" stroke="#FFFFFF" stroke-width="0.5" stroke-miterlimit="10" d="M25.732,53.643c0,0-15.22-5.762-22.787,7.199"/>
<path fill="none" stroke="#FFFFFF" stroke-width="0.5" stroke-miterlimit="10" d="M95.775,16.637c0,0-0.3,17.287-2.182,22.657
	c-2.128,6.071-9.256,17.262-14.063,21.548c-0.684,0.608-3.66,0-3.66,0l2.737-4.237c0,0,9.383-12.072,11.441-18.476
	c0.64-1.989,1.303-8.258,1.303-8.258l-3.361,8.258c4.078-8.933,9.696-26.047,11.206-35.445C86.161,1.019,76.101,31.727,87.99,38.129
	"/>
<line fill="none" stroke="#FFFFFF" stroke-width="0.5" stroke-miterlimit="10" x1="41.084" y1="50.061" x2="48.847" y2="51.877"/>
<line fill="none" stroke="#FFFFFF" stroke-width="0.5" stroke-miterlimit="10" x1="45.288" y1="60.842" x2="48.847" y2="61.813"/>
<path fill="none" stroke="#FFFFFF" stroke-width="0.5" stroke-miterlimit="10" d="M46.585,81.385v5.681
	c0,0,31.05,4.411,32.712,7.534c0.456,0.859,0,3.9,0,3.9h-2.701l-0.329-1.925l-10.864-0.819V98.5h-3.058v-2.972l-15.76-0.687h-2.728"
	/>
<path fill="none" stroke="#FFFFFF" stroke-width="0.5" stroke-miterlimit="10" d="M46.585,81.385"/>
<path fill="none" stroke="#FFFFFF" stroke-width="0.5" stroke-miterlimit="10" d="M65.402,95.756c0-0.984-0.31-2.313-0.31-2.313"/>
<path fill="none" stroke="#FFFFFF" stroke-width="0.5" stroke-miterlimit="10" d="M46.585,87.065c0,0,17.744,4.818,18.508,6.378"/>
<line fill="none" stroke="#FFFFFF" stroke-width="0.5" stroke-miterlimit="10" x1="46.585" y1="87.065" x2="46.585" y2="94.842"/>
<line fill="none" stroke="#FFFFFF" stroke-width="0.5" stroke-miterlimit="10" x1="46.585" y1="83.922" x2="43.857" y2="83.922"/>
</svg>
