<?xml version="1.0" encoding="utf-8"?>
<!-- Generator: Adobe Illustrator 16.0.0, SVG Export Plug-In . SVG Version: 6.00 Build 0)  -->
<!DOCTYPE svg PUBLIC "-//W3C//DTD SVG 1.1//EN" "http://www.w3.org/Graphics/SVG/1.1/DTD/svg11.dtd">
<svg version="1.1" id="Layer_1" xmlns="http://www.w3.org/2000/svg" xmlns:xlink="http://www.w3.org/1999/xlink" x="0px" y="0px"
	 width="100px" height="100px" viewBox="0 0 100 100" enable-background="new 0 0 100 100" xml:space="preserve">
<path fill="none" stroke="#FFFFFF" stroke-width="0.5" stroke-miterlimit="10" d="M50.601,56.691H14.032c0,0,0-5.756,0-11.174
	c0-5.417,6.434-5.755,6.434-5.755h14.56v-6.095h-5.079C17.08,33.328,17.08,26.556,17.08,26.556s0-8.803,0-15.575
	s4.741-9.236,8.561-9.206c9.385,0.075,24.96,0,24.96,0"/>
<polyline fill="none" stroke="#FFFFFF" stroke-width="0.5" stroke-miterlimit="10" points="50.601,33.667 41.121,33.667 
	41.121,39.762 50.601,39.762 "/>
<path fill="none" stroke="#FFFFFF" stroke-width="0.5" stroke-miterlimit="10" d="M14.032,55.337c0,0,1.397-11.173-13.353-9.82
	v3.048c0,0,9.291-2.031,8.952,8.126c-0.338,10.158,1.016,15.237,1.016,15.237s5.688,12.138,36.812,13.487"/>
<line fill="none" stroke="#FFFFFF" stroke-width="0.5" stroke-miterlimit="10" x1="35.025" y1="39.762" x2="41.121" y2="39.762"/>
<line fill="none" stroke="#FFFFFF" stroke-width="0.5" stroke-miterlimit="10" x1="35.025" y1="33.667" x2="41.121" y2="33.667"/>
<path fill="none" stroke="#FFFFFF" stroke-width="0.5" stroke-miterlimit="10" d="M14.032,56.691H9.631
	c0,0,2.708,12.19,25.395,12.19h15.576"/>
<path fill="none" stroke="#FFFFFF" stroke-width="0.5" stroke-miterlimit="10" d="M50.194,85.416h-2.735v-3.783v5.96
	c0,0-31.148,4.353-32.817,7.437c-0.458,0.847,0,3.85,0,3.85h2.709l0.332-1.899l10.899-0.811v2.71h3.067v-2.934l15.81-0.678h2.735
	h-2.735v-7.675c0,0-17.802,4.754-18.568,6.294c0,0-0.31,1.312-0.31,2.282"/>
<path fill="none" stroke="#FFFFFF" stroke-width="0.5" stroke-miterlimit="10" d="M50.194,85.416H52.9l-0.121-3.783l0.121,5.96
	c0,0,30.794,4.353,32.443,7.437c0.452,0.847,0,3.85,0,3.85h-2.679l-0.329-1.899l-10.774-0.811v2.71h-3.03v-2.934L52.9,95.268h-2.706
	H52.9v-7.675c0,0,17.599,4.754,18.354,6.294c0,0,0.307,1.312,0.307,2.282"/>
<path fill="none" stroke="#FFFFFF" stroke-width="0.5" stroke-miterlimit="10" d="M50.601,56.691h35.963c0,0,0-5.756,0-11.174
	c0-5.417-6.325-5.755-6.325-5.755H65.92v-6.095h4.995c12.653-0.339,12.653-7.111,12.653-7.111s0-8.803,0-15.575
	s-4.663-9.236-8.418-9.206c-9.23,0.075-24.549,0-24.549,0"/>
<polyline fill="none" stroke="#FFFFFF" stroke-width="0.5" stroke-miterlimit="10" points="50.601,33.667 59.926,33.667 
	59.926,39.762 50.601,39.762 "/>
<path fill="none" stroke="#FFFFFF" stroke-width="0.5" stroke-miterlimit="10" d="M86.564,55.337c0,0-1.373-11.173,13.133-9.82
	v3.048c0,0-9.136-2.031-8.804,8.126c0.335,10.158-0.998,15.237-0.998,15.237S83.509,84.066,52.9,85.416"/>
<line fill="none" stroke="#FFFFFF" stroke-width="0.5" stroke-miterlimit="10" x1="65.92" y1="39.762" x2="59.926" y2="39.762"/>
<line fill="none" stroke="#FFFFFF" stroke-width="0.5" stroke-miterlimit="10" x1="65.92" y1="33.667" x2="59.926" y2="33.667"/>
<path fill="none" stroke="#FFFFFF" stroke-width="0.5" stroke-miterlimit="10" d="M86.564,56.691h4.329
	c0,0-2.663,12.19-24.974,12.19H50.601"/>
<path fill="none" stroke="#FFFFFF" stroke-width="0.5" stroke-miterlimit="10" d="M52.779,81.633c0,0,10.038-0.527,14.302-5.975
	c0,0-7.997,2.988-16.887,3.159c-9.413-0.171-17.878-3.159-17.878-3.159c4.514,5.447,15.143,5.975,15.143,5.975"/>
<circle fill="none" stroke="#FFFFFF" stroke-width="0.5" stroke-miterlimit="10" cx="30.906" cy="47.944" r="1.35"/>
<line fill="none" stroke="#FFFFFF" stroke-width="0.5" stroke-miterlimit="10" x1="27.802" y1="51.049" x2="29.952" y2="48.898"/>
<line fill="none" stroke="#FFFFFF" stroke-width="0.5" stroke-miterlimit="10" x1="34.123" y1="51.049" x2="31.86" y2="48.898"/>
<line fill="none" stroke="#FFFFFF" stroke-width="0.5" stroke-miterlimit="10" x1="34.123" y1="44.501" x2="31.86" y2="46.99"/>
<line fill="none" stroke="#FFFFFF" stroke-width="0.5" stroke-miterlimit="10" x1="27.802" y1="44.501" x2="29.952" y2="46.99"/>
<circle fill="none" stroke="#FFFFFF" stroke-width="0.5" stroke-miterlimit="10" cx="69.022" cy="48.114" r="1.349"/>
<line fill="none" stroke="#FFFFFF" stroke-width="0.5" stroke-miterlimit="10" x1="65.92" y1="51.217" x2="68.067" y2="49.067"/>
<line fill="none" stroke="#FFFFFF" stroke-width="0.5" stroke-miterlimit="10" x1="72.24" y1="51.217" x2="69.979" y2="49.067"/>
<line fill="none" stroke="#FFFFFF" stroke-width="0.5" stroke-miterlimit="10" x1="72.24" y1="44.671" x2="69.979" y2="47.16"/>
<line fill="none" stroke="#FFFFFF" stroke-width="0.5" stroke-miterlimit="10" x1="65.92" y1="44.671" x2="68.067" y2="47.16"/>
<circle fill="none" stroke="#FFFFFF" stroke-width="0.5" stroke-miterlimit="10" cx="30.906" cy="16.868" r="1.35"/>
<line fill="none" stroke="#FFFFFF" stroke-width="0.5" stroke-miterlimit="10" x1="27.802" y1="19.972" x2="29.952" y2="17.821"/>
<line fill="none" stroke="#FFFFFF" stroke-width="0.5" stroke-miterlimit="10" x1="34.123" y1="19.972" x2="31.86" y2="17.821"/>
<line fill="none" stroke="#FFFFFF" stroke-width="0.5" stroke-miterlimit="10" x1="34.123" y1="13.425" x2="31.86" y2="15.914"/>
<line fill="none" stroke="#FFFFFF" stroke-width="0.5" stroke-miterlimit="10" x1="27.802" y1="13.425" x2="29.952" y2="15.914"/>
<circle fill="none" stroke="#FFFFFF" stroke-width="0.5" stroke-miterlimit="10" cx="69.022" cy="17.038" r="1.349"/>
<line fill="none" stroke="#FFFFFF" stroke-width="0.5" stroke-miterlimit="10" x1="65.92" y1="20.14" x2="68.067" y2="17.991"/>
<line fill="none" stroke="#FFFFFF" stroke-width="0.5" stroke-miterlimit="10" x1="72.24" y1="20.14" x2="69.979" y2="17.991"/>
<line fill="none" stroke="#FFFFFF" stroke-width="0.5" stroke-miterlimit="10" x1="72.24" y1="13.594" x2="69.979" y2="16.083"/>
<line fill="none" stroke="#FFFFFF" stroke-width="0.5" stroke-miterlimit="10" x1="65.92" y1="13.594" x2="68.067" y2="16.083"/>
</svg>
